<svg width="56" height="55" viewBox="0 0 56 55" fill="none" xmlns="http://www.w3.org/2000/svg">
<g clip-path="url(#clip0_2584_3906)">
<path d="M22.9979 14.495C23.7556 14.2347 24.5478 14.0233 25.3757 13.8691C35.1627 12.0468 43.193 19.4874 45.9867 22.502C46.3248 22.8669 46.4939 23.0493 46.6263 23.3546C46.7258 23.5838 46.7961 23.9617 46.7858 24.2114C46.772 24.5439 46.6793 24.7765 46.4938 25.2417C46.0884 26.2585 45.45 27.7004 44.5471 29.3034M15.8729 19.0405C12.2514 22.6241 10.1648 27.0546 9.25444 29.3385C9.06945 29.8026 8.97696 30.0346 8.96322 30.3671C8.9529 30.6168 9.02321 30.9945 9.12269 31.2238C9.25514 31.529 9.42419 31.7115 9.7623 32.0763C12.556 35.0909 20.5863 42.5315 30.3733 40.7092C34.3196 39.9744 37.4573 37.9373 39.8967 35.5174M7.40745 13.2476L48.3415 41.3307M23.0504 23.9795C22.2034 25.2141 21.8273 26.7719 22.1231 28.3601C22.7145 31.5365 25.769 33.632 28.9454 33.0406C30.5336 32.7449 31.8516 31.8334 32.6986 30.5988" stroke="white" stroke-width="3.90019" stroke-linecap="round" stroke-linejoin="round"/>
</g>
<defs>
<clipPath id="clip0_2584_3906">
<rect width="46.8023" height="46.8023" fill="white" transform="translate(0.583984 8.56726) rotate(-10.5477)"/>
</clipPath>
</defs>
</svg>
